# xmcd
# 
# Track frame offsets:
#     150
#     22162
#     41620
#     64308
#     86322
#     105776
# 
# Disc length: 1710
# 
# Revision: 0
# Processed by: cddbd v1.5.2PL0 Copyright (c) Steve Scherf et al.
# Submitted via: fre:ac v1.0.31
# 
DISCID=4106ac06
DTITLE=HKT48 - 意志 Type-A
DYEAR=2019
DGENRE=JPop
TTITLE0=意志
TTITLE1=誰より手を振ろう
TTITLE2=いつだってそばにいる
TTITLE3=意志 (Instrumental)
TTITLE4=誰より手を振ろう (Instrumental)
TTITLE5=いつだってそばにいる (Instrumental)
EXTD=
EXTT0=
EXTT1=
EXTT2=
EXTT3=
EXTT4=
EXTT5=
PLAYORDER=
